<svg xmlns="http://www.w3.org/2000/svg" xmlns:xlink="http://www.w3.org/1999/xlink" width="300" zoomAndPan="magnify" viewBox="0 0 224.87999 225" height="300" preserveAspectRatio="xMidYMid meet" version="1.0"><defs><g/><clipPath id="0bedf88fad"><path d="M 25.042969 19.875 L 199.699219 19.875 L 199.699219 194.53125 L 25.042969 194.53125 Z M 25.042969 19.875 " clip-rule="nonzero"/></clipPath><clipPath id="0e476b9c9e"><path d="M 25 0.886719 L 37 0.886719 L 37 13 L 25 13 Z M 25 0.886719 " clip-rule="nonzero"/></clipPath><clipPath id="5f478e53c6"><path d="M 36 0.886719 L 46 0.886719 L 46 13 L 36 13 Z M 36 0.886719 " clip-rule="nonzero"/></clipPath><clipPath id="a0db5ae45c"><path d="M 80 0.886719 L 93 0.886719 L 93 13 L 80 13 Z M 80 0.886719 " clip-rule="nonzero"/></clipPath><clipPath id="080b827650"><rect x="0" width="104" y="0" height="18"/></clipPath></defs><g clip-path="url(#0bedf88fad)"><path fill="#000000" d="M 112.371094 194.53125 C 64.234375 194.53125 25.042969 155.339844 25.042969 107.203125 C 25.042969 59.066406 64.234375 19.875 112.371094 19.875 C 160.511719 19.875 199.699219 59.066406 199.699219 107.203125 C 199.699219 155.339844 160.511719 194.53125 112.371094 194.53125 Z M 112.371094 21.164062 C 64.921875 21.164062 26.335938 59.753906 26.335938 107.203125 C 26.335938 154.652344 64.921875 193.242188 112.371094 193.242188 C 159.820312 193.242188 198.410156 154.652344 198.410156 107.203125 C 198.410156 59.753906 159.820312 21.164062 112.371094 21.164062 Z M 112.371094 21.164062 " fill-opacity="1" fill-rule="nonzero"/></g><g transform="matrix(1, 0, 0, 1, 60, 98)"><g clip-path="url(#080b827650)"><g fill="#000000" fill-opacity="1"><g transform="translate(1.294921, 12.298727)"><g><path d="M 0.109375 -8.90625 L 0.109375 -11.140625 L 7.9375 -11.140625 L 7.9375 -8.90625 L 5.296875 -8.90625 L 5.296875 0 L 2.75 0 L 2.75 -8.90625 Z M 0.109375 -8.90625 "/></g></g></g><g fill="#000000" fill-opacity="1"><g transform="translate(9.337209, 12.298727)"><g><path d="M 7.1875 -11.140625 L 7.1875 -8.90625 L 3.34375 -8.90625 L 3.34375 -6.703125 L 7.015625 -6.703125 L 7.015625 -4.46875 L 3.34375 -4.46875 L 3.34375 -2.234375 L 7.1875 -2.234375 L 7.1875 0 L 0.8125 0 L 0.8125 -11.140625 Z M 7.1875 -11.140625 "/></g></g></g><g fill="#000000" fill-opacity="1"><g transform="translate(17.1636, 12.298727)"><g><path d="M 3.34375 -11.140625 L 3.34375 -2.234375 L 7.1875 -2.234375 L 7.1875 0 L 0.8125 0 L 0.8125 -11.140625 Z M 3.34375 -11.140625 "/></g></g></g><g clip-path="url(#0e476b9c9e)"><g fill="#000000" fill-opacity="1"><g transform="translate(24.787583, 12.298727)"><g><path d="M 0.3125 -5.578125 C 0.3125 -7.179688 0.859375 -8.539062 1.953125 -9.65625 C 3.054688 -10.78125 4.378906 -11.34375 5.921875 -11.34375 C 7.484375 -11.34375 8.804688 -10.785156 9.890625 -9.671875 C 10.984375 -8.554688 11.53125 -7.191406 11.53125 -5.578125 C 11.53125 -3.941406 10.992188 -2.566406 9.921875 -1.453125 C 8.847656 -0.347656 7.515625 0.203125 5.921875 0.203125 C 4.296875 0.203125 2.953125 -0.347656 1.890625 -1.453125 C 0.835938 -2.554688 0.3125 -3.929688 0.3125 -5.578125 Z M 3.046875 -5.578125 C 3.046875 -4.992188 3.132812 -4.457031 3.3125 -3.96875 C 3.5 -3.488281 3.816406 -3.082031 4.265625 -2.75 C 4.710938 -2.414062 5.265625 -2.25 5.921875 -2.25 C 6.867188 -2.25 7.582031 -2.570312 8.0625 -3.21875 C 8.539062 -3.875 8.78125 -4.660156 8.78125 -5.578125 C 8.78125 -6.484375 8.535156 -7.257812 8.046875 -7.90625 C 7.554688 -8.5625 6.847656 -8.890625 5.921875 -8.890625 C 5.003906 -8.890625 4.296875 -8.5625 3.796875 -7.90625 C 3.296875 -7.257812 3.046875 -6.484375 3.046875 -5.578125 Z M 3.046875 -5.578125 "/></g></g></g></g><g clip-path="url(#5f478e53c6)"><g fill="#000000" fill-opacity="1"><g transform="translate(36.621622, 12.298727)"><g><path d="M 4.90625 -11.34375 C 5.507812 -11.34375 6.097656 -11.253906 6.671875 -11.078125 C 7.253906 -10.898438 7.6875 -10.726562 7.96875 -10.5625 L 8.375 -10.28125 L 7.34375 -8.265625 C 7.257812 -8.316406 7.144531 -8.382812 7 -8.46875 C 6.863281 -8.550781 6.597656 -8.664062 6.203125 -8.8125 C 5.804688 -8.957031 5.4375 -9.03125 5.09375 -9.03125 C 4.664062 -9.03125 4.335938 -8.9375 4.109375 -8.75 C 3.878906 -8.570312 3.765625 -8.332031 3.765625 -8.03125 C 3.765625 -7.875 3.816406 -7.726562 3.921875 -7.59375 C 4.035156 -7.46875 4.222656 -7.332031 4.484375 -7.1875 C 4.742188 -7.039062 4.972656 -6.921875 5.171875 -6.828125 C 5.367188 -6.742188 5.675781 -6.609375 6.09375 -6.421875 C 6.8125 -6.117188 7.421875 -5.703125 7.921875 -5.171875 C 8.429688 -4.648438 8.6875 -4.054688 8.6875 -3.390625 C 8.6875 -2.753906 8.570312 -2.195312 8.34375 -1.71875 C 8.113281 -1.238281 7.796875 -0.863281 7.390625 -0.59375 C 6.992188 -0.320312 6.550781 -0.125 6.0625 0 C 5.582031 0.132812 5.0625 0.203125 4.5 0.203125 C 4.007812 0.203125 3.53125 0.148438 3.0625 0.046875 C 2.59375 -0.046875 2.203125 -0.164062 1.890625 -0.3125 C 1.578125 -0.46875 1.289062 -0.613281 1.03125 -0.75 C 0.78125 -0.894531 0.597656 -1.019531 0.484375 -1.125 L 0.3125 -1.265625 L 1.578125 -3.40625 C 1.679688 -3.3125 1.828125 -3.191406 2.015625 -3.046875 C 2.210938 -2.910156 2.550781 -2.722656 3.03125 -2.484375 C 3.507812 -2.253906 3.9375 -2.140625 4.3125 -2.140625 C 5.375 -2.140625 5.90625 -2.503906 5.90625 -3.234375 C 5.90625 -3.390625 5.867188 -3.53125 5.796875 -3.65625 C 5.722656 -3.789062 5.585938 -3.921875 5.390625 -4.046875 C 5.203125 -4.179688 5.03125 -4.285156 4.875 -4.359375 C 4.726562 -4.441406 4.484375 -4.5625 4.140625 -4.71875 C 3.804688 -4.875 3.5625 -4.992188 3.40625 -5.078125 C 2.726562 -5.410156 2.203125 -5.828125 1.828125 -6.328125 C 1.460938 -6.828125 1.28125 -7.363281 1.28125 -7.9375 C 1.28125 -8.9375 1.648438 -9.753906 2.390625 -10.390625 C 3.128906 -11.023438 3.96875 -11.34375 4.90625 -11.34375 Z M 4.90625 -11.34375 "/></g></g></g></g><g fill="#000000" fill-opacity="1"><g transform="translate(45.689441, 12.298727)"><g><path d="M 10.015625 0 L 9.484375 -6.59375 L 9.421875 -6.59375 L 7.140625 -0.0625 L 5.625 -0.0625 L 3.34375 -6.59375 L 3.28125 -6.59375 L 2.75 0 L 0.21875 0 L 1.21875 -11.140625 L 3.921875 -11.140625 L 6.390625 -4.71875 L 8.859375 -11.140625 L 11.5625 -11.140625 L 12.5625 0 Z M 10.015625 0 "/></g></g></g><g fill="#000000" fill-opacity="1"><g transform="translate(58.454551, 12.298727)"><g><path d="M 6.46875 -11.140625 L 10.96875 0 L 8.234375 0 L 7.40625 -2.234375 L 3.171875 -2.234375 L 2.34375 0 L -0.375 0 L 4.125 -11.140625 Z M 6.546875 -4.453125 L 5.3125 -7.6875 L 5.28125 -7.6875 L 4.03125 -4.453125 Z M 6.546875 -4.453125 "/></g></g></g><g fill="#000000" fill-opacity="1"><g transform="translate(68.385901, 12.298727)"><g><path d="M 0.109375 -8.90625 L 0.109375 -11.140625 L 7.9375 -11.140625 L 7.9375 -8.90625 L 5.296875 -8.90625 L 5.296875 0 L 2.75 0 L 2.75 -8.90625 Z M 0.109375 -8.90625 "/></g></g></g><g fill="#000000" fill-opacity="1"><g transform="translate(76.428189, 12.298727)"><g><path d="M 3.34375 -11.140625 L 3.34375 0 L 0.8125 0 L 0.8125 -11.140625 Z M 3.34375 -11.140625 "/></g></g></g><g clip-path="url(#a0db5ae45c)"><g fill="#000000" fill-opacity="1"><g transform="translate(80.584266, 12.298727)"><g><path d="M 0.3125 -5.578125 C 0.3125 -7.179688 0.859375 -8.539062 1.953125 -9.65625 C 3.054688 -10.78125 4.378906 -11.34375 5.921875 -11.34375 C 7.484375 -11.34375 8.804688 -10.785156 9.890625 -9.671875 C 10.984375 -8.554688 11.53125 -7.191406 11.53125 -5.578125 C 11.53125 -3.941406 10.992188 -2.566406 9.921875 -1.453125 C 8.847656 -0.347656 7.515625 0.203125 5.921875 0.203125 C 4.296875 0.203125 2.953125 -0.347656 1.890625 -1.453125 C 0.835938 -2.554688 0.3125 -3.929688 0.3125 -5.578125 Z M 3.046875 -5.578125 C 3.046875 -4.992188 3.132812 -4.457031 3.3125 -3.96875 C 3.5 -3.488281 3.816406 -3.082031 4.265625 -2.75 C 4.710938 -2.414062 5.265625 -2.25 5.921875 -2.25 C 6.867188 -2.25 7.582031 -2.570312 8.0625 -3.21875 C 8.539062 -3.875 8.78125 -4.660156 8.78125 -5.578125 C 8.78125 -6.484375 8.535156 -7.257812 8.046875 -7.90625 C 7.554688 -8.5625 6.847656 -8.890625 5.921875 -8.890625 C 5.003906 -8.890625 4.296875 -8.5625 3.796875 -7.90625 C 3.296875 -7.257812 3.046875 -6.484375 3.046875 -5.578125 Z M 3.046875 -5.578125 "/></g></g></g></g><g fill="#000000" fill-opacity="1"><g transform="translate(92.418306, 12.298727)"><g><path d="M 3.34375 -6.90625 L 3.34375 0 L 0.8125 0 L 0.8125 -11.140625 L 3.34375 -11.140625 L 7.78125 -4.21875 L 7.796875 -4.21875 L 7.796875 -11.140625 L 10.34375 -11.140625 L 10.34375 0 L 7.796875 0 L 3.375 -6.90625 Z M 3.34375 -6.90625 "/></g></g></g></g></g></svg>