<svg xmlns="http://www.w3.org/2000/svg" xmlns:xlink="http://www.w3.org/1999/xlink" width="500" zoomAndPan="magnify" viewBox="0 0 375 374.999991" height="500" preserveAspectRatio="xMidYMid meet" version="1.0"><defs><g/><clipPath id="53d149174d"><path d="M 112.5 112.5 L 262.5 112.5 L 262.5 262.5 L 112.5 262.5 Z M 112.5 112.5 " clip-rule="nonzero"/></clipPath><clipPath id="97c891e415"><rect x="0" width="113" y="0" height="20"/></clipPath></defs><rect x="-37.5" width="450" fill="#ffffff" y="-37.499999" height="449.999989" fill-opacity="1"/><rect x="-37.5" width="450" fill="#ffffff" y="-37.499999" height="449.999989" fill-opacity="1"/><g clip-path="url(#53d149174d)"><path fill="#303030" d="M 187.503906 114.449219 C 147.226562 114.449219 114.457031 147.21875 114.457031 187.496094 C 114.457031 227.777344 147.226562 260.546875 187.503906 260.546875 C 227.785156 260.546875 260.554688 227.777344 260.554688 187.496094 C 260.554688 147.21875 227.785156 114.449219 187.503906 114.449219 Z M 187.503906 262.496094 C 146.152344 262.496094 112.507812 228.851562 112.507812 187.496094 C 112.507812 146.144531 146.152344 112.5 187.503906 112.5 C 228.859375 112.5 262.503906 146.144531 262.503906 187.496094 C 262.503906 228.851562 228.859375 262.496094 187.503906 262.496094 " fill-opacity="1" fill-rule="nonzero"/></g><g transform="matrix(1, 0, 0, 1, 131, 177)"><g clip-path="url(#97c891e415)"><g fill="#000000" fill-opacity="1"><g transform="translate(1.218869, 14.280585)"><g><path d="M 0.109375 -9.625 L 0.109375 -12.046875 L 8.578125 -12.046875 L 8.578125 -9.625 L 5.71875 -9.625 L 5.71875 0 L 2.984375 0 L 2.984375 -9.625 Z M 0.109375 -9.625 "/></g></g></g><g fill="#000000" fill-opacity="1"><g transform="translate(9.912251, 14.280585)"><g><path d="M 7.765625 -12.046875 L 7.765625 -9.625 L 3.625 -9.625 L 3.625 -7.234375 L 7.59375 -7.234375 L 7.59375 -4.828125 L 3.625 -4.828125 L 3.625 -2.40625 L 7.765625 -2.40625 L 7.765625 0 L 0.875 0 L 0.875 -12.046875 Z M 7.765625 -12.046875 "/></g></g></g><g fill="#000000" fill-opacity="1"><g transform="translate(18.372255, 14.280585)"><g><path d="M 3.625 -12.046875 L 3.625 -2.40625 L 7.765625 -2.40625 L 7.765625 0 L 0.875 0 L 0.875 -12.046875 Z M 3.625 -12.046875 "/></g></g></g><g fill="#000000" fill-opacity="1"><g transform="translate(26.613463, 14.280585)"><g><path d="M 0.328125 -6.03125 C 0.328125 -7.769531 0.921875 -9.242188 2.109375 -10.453125 C 3.296875 -11.660156 4.726562 -12.265625 6.40625 -12.265625 C 8.09375 -12.265625 9.523438 -11.660156 10.703125 -10.453125 C 11.878906 -9.253906 12.46875 -7.78125 12.46875 -6.03125 C 12.46875 -4.269531 11.882812 -2.785156 10.71875 -1.578125 C 9.5625 -0.378906 8.125 0.21875 6.40625 0.21875 C 4.644531 0.21875 3.191406 -0.375 2.046875 -1.5625 C 0.898438 -2.757812 0.328125 -4.25 0.328125 -6.03125 Z M 3.296875 -6.03125 C 3.296875 -5.394531 3.390625 -4.816406 3.578125 -4.296875 C 3.773438 -3.773438 4.117188 -3.332031 4.609375 -2.96875 C 5.097656 -2.613281 5.695312 -2.4375 6.40625 -2.4375 C 7.425781 -2.4375 8.195312 -2.785156 8.71875 -3.484375 C 9.238281 -4.179688 9.5 -5.03125 9.5 -6.03125 C 9.5 -7.007812 9.234375 -7.851562 8.703125 -8.5625 C 8.171875 -9.269531 7.40625 -9.625 6.40625 -9.625 C 5.414062 -9.625 4.648438 -9.269531 4.109375 -8.5625 C 3.566406 -7.851562 3.296875 -7.007812 3.296875 -6.03125 Z M 3.296875 -6.03125 "/></g></g></g><g fill="#000000" fill-opacity="1"><g transform="translate(39.405572, 14.280585)"><g><path d="M 5.3125 -12.265625 C 5.96875 -12.265625 6.601562 -12.164062 7.21875 -11.96875 C 7.84375 -11.78125 8.304688 -11.59375 8.609375 -11.40625 L 9.046875 -11.125 L 7.9375 -8.9375 C 7.851562 -8.988281 7.734375 -9.0625 7.578125 -9.15625 C 7.421875 -9.25 7.128906 -9.375 6.703125 -9.53125 C 6.273438 -9.6875 5.875 -9.765625 5.5 -9.765625 C 5.039062 -9.765625 4.6875 -9.664062 4.4375 -9.46875 C 4.195312 -9.269531 4.078125 -9.007812 4.078125 -8.6875 C 4.078125 -8.519531 4.132812 -8.363281 4.25 -8.21875 C 4.363281 -8.082031 4.5625 -7.929688 4.84375 -7.765625 C 5.125 -7.609375 5.367188 -7.476562 5.578125 -7.375 C 5.796875 -7.28125 6.128906 -7.140625 6.578125 -6.953125 C 7.359375 -6.617188 8.019531 -6.164062 8.5625 -5.59375 C 9.113281 -5.03125 9.390625 -4.382812 9.390625 -3.65625 C 9.390625 -2.96875 9.265625 -2.363281 9.015625 -1.84375 C 8.773438 -1.332031 8.4375 -0.929688 8 -0.640625 C 7.570312 -0.347656 7.09375 -0.132812 6.5625 0 C 6.039062 0.144531 5.472656 0.21875 4.859375 0.21875 C 4.335938 0.21875 3.820312 0.160156 3.3125 0.046875 C 2.800781 -0.0546875 2.375 -0.1875 2.03125 -0.34375 C 1.695312 -0.5 1.394531 -0.65625 1.125 -0.8125 C 0.851562 -0.96875 0.65625 -1.101562 0.53125 -1.21875 L 0.328125 -1.375 L 1.703125 -3.671875 C 1.816406 -3.578125 1.976562 -3.453125 2.1875 -3.296875 C 2.394531 -3.148438 2.757812 -2.953125 3.28125 -2.703125 C 3.800781 -2.453125 4.257812 -2.328125 4.65625 -2.328125 C 5.8125 -2.328125 6.390625 -2.71875 6.390625 -3.5 C 6.390625 -3.664062 6.347656 -3.816406 6.265625 -3.953125 C 6.179688 -4.097656 6.035156 -4.238281 5.828125 -4.375 C 5.617188 -4.519531 5.429688 -4.632812 5.265625 -4.71875 C 5.109375 -4.800781 4.847656 -4.925781 4.484375 -5.09375 C 4.117188 -5.269531 3.847656 -5.398438 3.671875 -5.484375 C 2.941406 -5.847656 2.378906 -6.296875 1.984375 -6.828125 C 1.585938 -7.367188 1.390625 -7.953125 1.390625 -8.578125 C 1.390625 -9.660156 1.785156 -10.546875 2.578125 -11.234375 C 3.378906 -11.921875 4.289062 -12.265625 5.3125 -12.265625 Z M 5.3125 -12.265625 "/></g></g></g><g fill="#000000" fill-opacity="1"><g transform="translate(49.207513, 14.280585)"><g><path d="M 10.828125 0 L 10.265625 -7.140625 L 10.1875 -7.140625 L 7.71875 -0.078125 L 6.078125 -0.078125 L 3.625 -7.140625 L 3.546875 -7.140625 L 2.984375 0 L 0.234375 0 L 1.3125 -12.046875 L 4.234375 -12.046875 L 6.90625 -5.09375 L 9.578125 -12.046875 L 12.5 -12.046875 L 13.578125 0 Z M 10.828125 0 "/></g></g></g><g fill="#000000" fill-opacity="1"><g transform="translate(63.006074, 14.280585)"><g><path d="M 6.984375 -12.046875 L 11.84375 0 L 8.90625 0 L 8.015625 -2.40625 L 3.421875 -2.40625 L 2.546875 0 L -0.40625 0 L 4.453125 -12.046875 Z M 7.078125 -4.8125 L 5.734375 -8.3125 L 5.703125 -8.3125 L 4.359375 -4.8125 Z M 7.078125 -4.8125 "/></g></g></g><g fill="#000000" fill-opacity="1"><g transform="translate(73.74147, 14.280585)"><g><path d="M 0.109375 -9.625 L 0.109375 -12.046875 L 8.578125 -12.046875 L 8.578125 -9.625 L 5.71875 -9.625 L 5.71875 0 L 2.984375 0 L 2.984375 -9.625 Z M 0.109375 -9.625 "/></g></g></g><g fill="#000000" fill-opacity="1"><g transform="translate(82.434852, 14.280585)"><g><path d="M 3.625 -12.046875 L 3.625 0 L 0.875 0 L 0.875 -12.046875 Z M 3.625 -12.046875 "/></g></g></g><g fill="#000000" fill-opacity="1"><g transform="translate(86.927408, 14.280585)"><g><path d="M 0.328125 -6.03125 C 0.328125 -7.769531 0.921875 -9.242188 2.109375 -10.453125 C 3.296875 -11.660156 4.726562 -12.265625 6.40625 -12.265625 C 8.09375 -12.265625 9.523438 -11.660156 10.703125 -10.453125 C 11.878906 -9.253906 12.46875 -7.78125 12.46875 -6.03125 C 12.46875 -4.269531 11.882812 -2.785156 10.71875 -1.578125 C 9.5625 -0.378906 8.125 0.21875 6.40625 0.21875 C 4.644531 0.21875 3.191406 -0.375 2.046875 -1.5625 C 0.898438 -2.757812 0.328125 -4.25 0.328125 -6.03125 Z M 3.296875 -6.03125 C 3.296875 -5.394531 3.390625 -4.816406 3.578125 -4.296875 C 3.773438 -3.773438 4.117188 -3.332031 4.609375 -2.96875 C 5.097656 -2.613281 5.695312 -2.4375 6.40625 -2.4375 C 7.425781 -2.4375 8.195312 -2.785156 8.71875 -3.484375 C 9.238281 -4.179688 9.5 -5.03125 9.5 -6.03125 C 9.5 -7.007812 9.234375 -7.851562 8.703125 -8.5625 C 8.171875 -9.269531 7.40625 -9.625 6.40625 -9.625 C 5.414062 -9.625 4.648438 -9.269531 4.109375 -8.5625 C 3.566406 -7.851562 3.296875 -7.007812 3.296875 -6.03125 Z M 3.296875 -6.03125 "/></g></g></g><g fill="#000000" fill-opacity="1"><g transform="translate(99.719516, 14.280585)"><g><path d="M 3.625 -7.46875 L 3.625 0 L 0.875 0 L 0.875 -12.046875 L 3.625 -12.046875 L 8.40625 -4.5625 L 8.4375 -4.5625 L 8.4375 -12.046875 L 11.171875 -12.046875 L 11.171875 0 L 8.4375 0 L 3.65625 -7.46875 Z M 3.625 -7.46875 "/></g></g></g></g></g></svg>