<svg xmlns="http://www.w3.org/2000/svg" xmlns:xlink="http://www.w3.org/1999/xlink" width="300" zoomAndPan="magnify" viewBox="0 0 224.87999 225" height="300" preserveAspectRatio="xMidYMid meet" version="1.0"><defs><g/><clipPath id="51ea169eaf"><path d="M 18.015625 12.847656 L 206.914062 12.847656 L 206.914062 201.746094 L 18.015625 201.746094 Z M 18.015625 12.847656 " clip-rule="nonzero"/></clipPath><clipPath id="b9d70bb447"><rect x="0" width="119" y="0" height="21"/></clipPath></defs><g clip-path="url(#51ea169eaf)"><path fill="#303030" d="M 112.472656 15.300781 C 61.75 15.300781 20.480469 56.570312 20.480469 107.292969 C 20.480469 158.015625 61.75 199.285156 112.472656 199.285156 C 163.195312 199.285156 204.464844 158.015625 204.464844 107.292969 C 204.464844 56.570312 163.195312 15.300781 112.472656 15.300781 Z M 112.472656 201.738281 C 60.394531 201.738281 18.027344 159.371094 18.027344 107.292969 C 18.027344 55.214844 60.394531 12.847656 112.472656 12.847656 C 164.550781 12.847656 206.917969 55.214844 206.917969 107.292969 C 206.917969 159.371094 164.550781 201.738281 112.472656 201.738281 " fill-opacity="1" fill-rule="nonzero"/></g><g transform="matrix(1, 0, 0, 1, 53, 96)"><g clip-path="url(#b9d70bb447)"><g fill="#000000" fill-opacity="1"><g transform="translate(1.220286, 15.252805)"><g><path d="M 0.125 -10.140625 L 0.125 -12.671875 L 9.03125 -12.671875 L 9.03125 -10.140625 L 6.015625 -10.140625 L 6.015625 0 L 3.140625 0 L 3.140625 -10.140625 Z M 0.125 -10.140625 "/></g></g></g><g fill="#000000" fill-opacity="1"><g transform="translate(10.375783, 15.252805)"><g><path d="M 8.171875 -12.671875 L 8.171875 -10.140625 L 3.8125 -10.140625 L 3.8125 -7.625 L 7.984375 -7.625 L 7.984375 -5.078125 L 3.8125 -5.078125 L 3.8125 -2.53125 L 8.171875 -2.53125 L 8.171875 0 L 0.921875 0 L 0.921875 -12.671875 Z M 8.171875 -12.671875 "/></g></g></g><g fill="#000000" fill-opacity="1"><g transform="translate(19.285497, 15.252805)"><g><path d="M 3.8125 -12.671875 L 3.8125 -2.53125 L 8.171875 -2.53125 L 8.171875 0 L 0.921875 0 L 0.921875 -12.671875 Z M 3.8125 -12.671875 "/></g></g></g><g fill="#000000" fill-opacity="1"><g transform="translate(27.964785, 15.252805)"><g><path d="M 0.359375 -6.34375 C 0.359375 -8.175781 0.976562 -9.726562 2.21875 -11 C 3.46875 -12.269531 4.976562 -12.90625 6.75 -12.90625 C 8.519531 -12.90625 10.019531 -12.269531 11.25 -11 C 12.488281 -9.738281 13.109375 -8.1875 13.109375 -6.34375 C 13.109375 -4.488281 12.5 -2.925781 11.28125 -1.65625 C 10.070312 -0.394531 8.5625 0.234375 6.75 0.234375 C 4.894531 0.234375 3.363281 -0.390625 2.15625 -1.640625 C 0.957031 -2.898438 0.359375 -4.46875 0.359375 -6.34375 Z M 3.46875 -6.34375 C 3.46875 -5.675781 3.566406 -5.066406 3.765625 -4.515625 C 3.972656 -3.972656 4.332031 -3.507812 4.84375 -3.125 C 5.363281 -2.75 6 -2.5625 6.75 -2.5625 C 7.820312 -2.5625 8.628906 -2.929688 9.171875 -3.671875 C 9.722656 -4.410156 10 -5.300781 10 -6.34375 C 10 -7.375 9.71875 -8.257812 9.15625 -9 C 8.601562 -9.75 7.800781 -10.125 6.75 -10.125 C 5.695312 -10.125 4.882812 -9.75 4.3125 -9 C 3.75 -8.257812 3.46875 -7.375 3.46875 -6.34375 Z M 3.46875 -6.34375 "/></g></g></g><g fill="#000000" fill-opacity="1"><g transform="translate(41.436886, 15.252805)"><g><path d="M 5.59375 -12.90625 C 6.28125 -12.90625 6.945312 -12.800781 7.59375 -12.59375 C 8.25 -12.394531 8.738281 -12.203125 9.0625 -12.015625 L 9.515625 -11.703125 L 8.359375 -9.40625 C 8.265625 -9.457031 8.132812 -9.53125 7.96875 -9.625 C 7.800781 -9.726562 7.492188 -9.863281 7.046875 -10.03125 C 6.597656 -10.195312 6.179688 -10.28125 5.796875 -10.28125 C 5.304688 -10.28125 4.929688 -10.175781 4.671875 -9.96875 C 4.410156 -9.757812 4.28125 -9.484375 4.28125 -9.140625 C 4.28125 -8.960938 4.34375 -8.800781 4.46875 -8.65625 C 4.59375 -8.507812 4.800781 -8.347656 5.09375 -8.171875 C 5.394531 -8.003906 5.65625 -7.867188 5.875 -7.765625 C 6.101562 -7.671875 6.453125 -7.519531 6.921875 -7.3125 C 7.742188 -6.957031 8.441406 -6.476562 9.015625 -5.875 C 9.597656 -5.28125 9.890625 -4.609375 9.890625 -3.859375 C 9.890625 -3.128906 9.757812 -2.492188 9.5 -1.953125 C 9.238281 -1.410156 8.878906 -0.984375 8.421875 -0.671875 C 7.960938 -0.367188 7.457031 -0.144531 6.90625 0 C 6.351562 0.15625 5.753906 0.234375 5.109375 0.234375 C 4.554688 0.234375 4.015625 0.175781 3.484375 0.0625 C 2.953125 -0.0507812 2.503906 -0.191406 2.140625 -0.359375 C 1.785156 -0.523438 1.460938 -0.691406 1.171875 -0.859375 C 0.890625 -1.023438 0.679688 -1.164062 0.546875 -1.28125 L 0.359375 -1.4375 L 1.796875 -3.875 C 1.921875 -3.769531 2.085938 -3.632812 2.296875 -3.46875 C 2.515625 -3.3125 2.894531 -3.097656 3.4375 -2.828125 C 3.988281 -2.566406 4.476562 -2.4375 4.90625 -2.4375 C 6.125 -2.4375 6.734375 -2.851562 6.734375 -3.6875 C 6.734375 -3.863281 6.6875 -4.023438 6.59375 -4.171875 C 6.507812 -4.316406 6.359375 -4.460938 6.140625 -4.609375 C 5.921875 -4.765625 5.722656 -4.882812 5.546875 -4.96875 C 5.378906 -5.050781 5.101562 -5.179688 4.71875 -5.359375 C 4.332031 -5.546875 4.050781 -5.6875 3.875 -5.78125 C 3.101562 -6.15625 2.503906 -6.625 2.078125 -7.1875 C 1.660156 -7.757812 1.453125 -8.375 1.453125 -9.03125 C 1.453125 -10.164062 1.875 -11.09375 2.71875 -11.8125 C 3.5625 -12.539062 4.519531 -12.90625 5.59375 -12.90625 Z M 5.59375 -12.90625 "/></g></g></g><g fill="#000000" fill-opacity="1"><g transform="translate(51.759871, 15.252805)"><g><path d="M 11.390625 0 L 10.796875 -7.515625 L 10.71875 -7.515625 L 8.125 -0.078125 L 6.40625 -0.078125 L 3.8125 -7.515625 L 3.734375 -7.515625 L 3.140625 0 L 0.25 0 L 1.375 -12.671875 L 4.453125 -12.671875 L 7.265625 -5.359375 L 10.078125 -12.671875 L 13.140625 -12.671875 L 14.28125 0 Z M 11.390625 0 "/></g></g></g><g fill="#000000" fill-opacity="1"><g transform="translate(66.291924, 15.252805)"><g><path d="M 7.359375 -12.671875 L 12.46875 0 L 9.375 0 L 8.4375 -2.53125 L 3.609375 -2.53125 L 2.671875 0 L -0.4375 0 L 4.6875 -12.671875 Z M 7.453125 -5.0625 L 6.03125 -8.75 L 6 -8.75 L 4.59375 -5.0625 Z M 7.453125 -5.0625 "/></g></g></g><g fill="#000000" fill-opacity="1"><g transform="translate(77.597984, 15.252805)"><g><path d="M 0.125 -10.140625 L 0.125 -12.671875 L 9.03125 -12.671875 L 9.03125 -10.140625 L 6.015625 -10.140625 L 6.015625 0 L 3.140625 0 L 3.140625 -10.140625 Z M 0.125 -10.140625 "/></g></g></g><g fill="#000000" fill-opacity="1"><g transform="translate(86.753481, 15.252805)"><g><path d="M 3.8125 -12.671875 L 3.8125 0 L 0.921875 0 L 0.921875 -12.671875 Z M 3.8125 -12.671875 "/></g></g></g><g fill="#000000" fill-opacity="1"><g transform="translate(91.484849, 15.252805)"><g><path d="M 0.359375 -6.34375 C 0.359375 -8.175781 0.976562 -9.726562 2.21875 -11 C 3.46875 -12.269531 4.976562 -12.90625 6.75 -12.90625 C 8.519531 -12.90625 10.019531 -12.269531 11.25 -11 C 12.488281 -9.738281 13.109375 -8.1875 13.109375 -6.34375 C 13.109375 -4.488281 12.5 -2.925781 11.28125 -1.65625 C 10.070312 -0.394531 8.5625 0.234375 6.75 0.234375 C 4.894531 0.234375 3.363281 -0.390625 2.15625 -1.640625 C 0.957031 -2.898438 0.359375 -4.46875 0.359375 -6.34375 Z M 3.46875 -6.34375 C 3.46875 -5.675781 3.566406 -5.066406 3.765625 -4.515625 C 3.972656 -3.972656 4.332031 -3.507812 4.84375 -3.125 C 5.363281 -2.75 6 -2.5625 6.75 -2.5625 C 7.820312 -2.5625 8.628906 -2.929688 9.171875 -3.671875 C 9.722656 -4.410156 10 -5.300781 10 -6.34375 C 10 -7.375 9.71875 -8.257812 9.15625 -9 C 8.601562 -9.75 7.800781 -10.125 6.75 -10.125 C 5.695312 -10.125 4.882812 -9.75 4.3125 -9 C 3.75 -8.257812 3.46875 -7.375 3.46875 -6.34375 Z M 3.46875 -6.34375 "/></g></g></g><g fill="#000000" fill-opacity="1"><g transform="translate(104.95695, 15.252805)"><g><path d="M 3.8125 -7.859375 L 3.8125 0 L 0.921875 0 L 0.921875 -12.671875 L 3.8125 -12.671875 L 8.84375 -4.8125 L 8.875 -4.8125 L 8.875 -12.671875 L 11.765625 -12.671875 L 11.765625 0 L 8.875 0 L 3.84375 -7.859375 Z M 3.8125 -7.859375 "/></g></g></g></g></g></svg>